<svg width="46" height="60" viewBox="0 0 46 60" fill="none" xmlns="http://www.w3.org/2000/svg">
<path d="M22.648 56.4911L22.875 56.5632L23.102 56.4911C28.9418 54.6364 33.7573 50.9266 37.5452 45.4067C41.3352 39.8838 43.2321 33.739 43.2321 26.9924V11.5374V11.0162L42.7436 10.8345L23.1365 3.54038L22.875 3.4431L22.6135 3.54038L3.00636 10.8345L2.51786 11.0162V11.5374V26.9924C2.51786 33.739 4.41481 39.8838 8.20482 45.4067C11.9927 50.9266 16.8082 54.6364 22.648 56.4911ZM22.875 58.4667C16.578 56.5438 11.3288 52.6903 7.12067 46.8686C2.87274 40.9867 0.75 34.3691 0.75 26.9924V9.82367L22.875 1.55072L45 9.82367V26.9924C45 34.3692 42.8772 40.9857 38.6292 46.8655C34.4211 52.6893 29.1719 56.5438 22.875 58.4667Z" fill="#130C2C" stroke="white" stroke-width="1.5"/>
</svg>
