<svg width="23" height="23" viewBox="0 0 23 23" fill="none" xmlns="http://www.w3.org/2000/svg">
<path d="M11.0946 0.341919L1.25319 5.59692L11.0946 5.4191V0.341919ZM11.991 0.341919V5.4191L21.8341 5.59692L11.991 0.341919ZM14.8706 3.0981C15.2123 3.26188 15.3299 3.43502 15.7165 3.29464C16.3159 3.33207 16.9658 3.56604 17.2627 4.02931C17.526 4.23988 17.3467 4.61892 16.9714 4.61892C16.428 4.62359 15.8678 4.33347 16.1535 4.23052C16.4168 4.13693 16.977 4.27264 16.7137 3.97316C16.512 3.76258 16.0974 3.60816 15.8005 3.69707C15.7109 4.01527 15.2739 3.88425 15.1283 3.66431C14.9994 3.39291 14.6185 3.2806 14.2879 3.29464C13.9462 3.42098 14.3776 3.70643 14.5848 3.7579C15.0274 3.86085 14.596 4.10886 14.3552 3.99655C14.1199 3.88425 13.5148 3.54733 13.5988 3.14022C13.9238 2.79441 14.484 2.92403 14.8706 3.0981ZM8.79213 2.93432C9.10025 2.95772 9.4812 3.0747 9.36356 3.39759C9.12266 3.72515 8.81454 4.01059 8.34955 4.09014C7.9854 4.24924 7.51482 4.29604 7.13947 4.17905C6.93218 4.07142 6.38316 3.74386 6.30473 4.01995C6.18709 4.7125 6.34395 4.63295 5.68288 4.85289V3.71111C6.2375 3.52861 6.86496 3.50053 7.38036 3.77194C7.82854 3.96848 8.4672 3.84213 8.7361 3.50521C8.81454 3.20105 8.28232 3.28996 8.05263 3.34611C7.90137 2.9624 8.49521 2.99515 8.79213 2.93432ZM10.7529 6.17249L0.304174 6.36434L4.29353 15.391L10.7529 6.17249ZM12.3327 6.17249L18.7921 15.391L22.7809 6.36434L12.3327 6.17249ZM11.5428 6.52344L4.9826 15.8917H18.103L11.5428 6.52344ZM19.0106 7.5108C19.7893 7.89919 20.2151 8.73681 20.2487 9.52296C20.1759 10.1594 20.2095 10.4495 19.3972 10.5244C18.5848 10.5992 18.0582 9.6259 17.7333 8.99886C17.5428 8.5356 17.4084 7.8758 17.8285 7.5342C18.1703 7.30959 18.6689 7.34234 19.0106 7.5108ZM6.4784 8.26419C6.59605 8.45137 6.45039 8.79764 6.20949 8.8304C5.93498 8.86316 5.99661 8.39521 5.68288 8.28759C5.29633 8.17996 4.92098 8.54963 4.84255 8.8304C5.42518 8.64322 5.9798 9.16264 5.9798 9.6259C5.95739 10.1734 5.53723 10.7864 4.87616 10.9408H4.56244C3.85095 10.9081 3.53723 10.2015 3.76692 9.69609C4.01342 8.95675 4.37196 8.10977 5.29073 7.79625C5.76692 7.61375 6.35515 7.94599 6.4784 8.26419ZM18.4616 7.87112C18.0638 7.86644 18.2151 8.33906 18.2767 8.54963C18.4728 9.08777 18.6857 9.79436 19.3355 9.95346C19.7165 9.89731 19.582 9.3545 19.5428 9.18136C19.2795 8.6713 19.1451 8.09105 18.4616 7.87112ZM0.114258 8.09573V16.2005L3.58204 15.9338L0.114258 8.09573ZM22.9714 8.09573L19.5036 15.9338L22.9714 16.2005V8.09573ZM16.3664 8.12849L17.963 11.0999L17.4028 11.3058L16.2823 9.27963C15.9406 9.42001 15.554 9.69609 15.4644 9.21411C15.3916 9.03162 15.9406 8.97546 15.9182 8.65726C15.9014 8.33438 16.0414 8.08637 16.3664 8.12849ZM4.48961 9.41065C4.35515 9.6493 4.25991 9.89263 4.33835 10.1547C4.43358 10.5665 5.09465 10.4542 5.2123 10.1172C5.36356 9.88327 5.43078 9.56975 5.18428 9.38257C4.95459 9.22347 4.68569 9.25155 4.48961 9.41065ZM22.8874 11.3573C22.8818 12.2277 22.949 13.1916 22.3439 13.945C22.2935 14.0012 22.2207 14.0339 22.1367 14.062C21.8117 13.8701 21.9686 13.5332 22.2039 13.3367C22.2599 13.6783 22.512 13.201 22.5736 13.0746C22.6465 12.9249 22.7753 12.2464 22.5176 12.5973C22.5568 12.7845 22.1367 13.2103 21.9966 12.9764C21.7165 12.3025 21.9966 11.5491 22.3888 10.9408C22.7081 10.6507 22.9434 11.1467 22.8874 11.3573ZM0.558515 10.88C0.591569 10.8847 0.633585 10.9268 0.697451 11.0484V13.9076C0.288487 13.58 0.447031 13.0653 0.448151 12.6722C0.448151 12.2791 0.540588 11.9095 0.376443 11.5866C0.117619 11.507 0.0520729 10.7911 0.198852 10.9923C0.44591 11.2169 0.459916 10.866 0.558515 10.88ZM10.5736 11.2356C11.0274 11.4462 11.3467 11.9095 11.1787 12.34C11.061 13.0512 9.66608 13.3273 9.4756 13.7298C9.40837 13.8701 10.8986 13.8046 11.1675 13.8046C11.1955 13.9918 11.2515 14.3053 10.9546 14.3521C10.1423 14.296 9.27952 14.324 8.42798 14.324C8.45039 13.8 8.84255 13.3273 9.38036 13.07C9.76692 12.8407 10.2431 12.6348 10.3944 12.2323C10.4952 12.0218 10.3608 11.7972 10.1367 11.6942C9.90137 11.5585 9.52042 11.5866 9.39717 11.8206C9.28512 11.9984 9.15067 12.2464 8.90977 12.2698C8.74731 12.2885 8.40557 12.2932 8.50641 12.0405C8.58484 11.7784 8.69689 11.5024 8.9658 11.3292C9.45879 11.0344 10.0806 11.0157 10.5736 11.2356ZM13.5596 11.1701C13.9406 11.2731 14.2319 11.5398 14.3608 11.8533C14.7025 12.5412 14.6689 13.4022 14.1143 14.0012C13.8622 14.2258 13.5428 14.427 13.1619 14.427C12.4616 14.4223 11.907 13.9076 11.7725 13.3601C11.5988 12.733 11.6717 12.0171 12.1591 11.4977C12.54 11.142 13.0554 11.0157 13.5596 11.1701ZM22.3047 11.5491C22.2151 11.8252 22.1199 12.1762 22.2655 12.4523C22.5512 12.3587 22.568 12.0031 22.6353 11.7738C22.6857 11.4883 22.4392 11.1842 22.3047 11.5491ZM12.4336 12.5365C12.4672 13.0278 12.5288 13.6034 12.977 13.8561C13.2515 13.9403 13.5204 13.7532 13.5988 13.5426C13.7053 13.2478 13.7277 12.9389 13.7333 12.6348C13.7221 12.3025 13.6493 11.9329 13.358 11.6942C12.6745 11.4883 12.5008 12.2043 12.4336 12.5365ZM21.5148 11.8767V14.7405L21.2683 15.054V13.0746C21.0106 13.4256 20.7585 13.5005 20.9266 13.0325C21.2683 12.7003 21.1955 12.2183 21.5148 11.8767ZM1.89857 12.4476C1.94339 12.6161 2.18541 13.2805 2.01286 13.1402C1.90249 13.0793 1.81006 12.9109 1.82182 12.8547C1.73499 12.7143 1.65599 12.5693 1.58597 12.4242C1.4207 12.6114 1.36412 12.8126 1.41006 13.0512C1.42126 12.9764 1.47616 12.9436 1.59997 13.0185C2.03919 13.6081 2.28176 14.3802 2.00837 15.054L1.88401 15.1055C1.30361 14.8341 1.24535 14.1977 1.13162 13.7017C1.04479 13.1261 1.08737 12.5459 1.26048 11.9843C1.55179 11.8065 1.77364 12.237 1.89857 12.4476ZM1.50361 13.3928C1.27616 13.6128 1.377 13.9918 1.48232 14.2539C1.54451 14.5112 1.87 14.7312 1.82182 14.3287C1.86048 13.8093 1.69129 13.7344 1.50361 13.3928ZM5.2235 16.6404L11.5428 22.4007L17.8622 16.6404H5.2235ZM4.02462 16.6544L1.00838 16.8837L4.60725 18.8069C4.4616 18.6806 4.33274 18.5402 4.20949 18.3952C3.91818 18.0723 3.62126 17.7587 3.15067 17.6184C2.66048 17.3142 2.91538 17.3704 3.31314 17.4967C3.25711 17.4125 3.27392 17.375 3.31874 17.375C3.44199 17.3657 3.78933 17.5716 3.86776 17.6698L5.25151 19.1485L8.89857 21.0999L4.02462 16.6544ZM19.061 16.6544L16.6857 18.821C17.0442 18.6759 17.3187 18.4232 17.6381 18.2407C17.7725 18.1752 17.8453 18.1518 17.879 18.1518C17.9966 18.1518 17.5764 18.4841 17.4476 18.6338C16.921 19.0924 16.5512 19.7101 15.8453 19.9955L16.9042 18.8491C16.7753 18.9099 16.568 18.9988 16.4448 19.0409L14.1871 21.0999L18.3608 18.8725C18.6633 18.5589 18.4672 18.6104 18.0414 18.8303L17.4028 19.1111C18.0414 18.47 19.1283 17.7868 19.6437 17.4452C20.1591 17.1036 20.5344 16.9866 20.103 17.375L19.3972 18.1237C19.9574 17.7681 19.4476 18.3062 19.1451 18.3811C19.1059 18.4279 19.0666 18.4747 19.0218 18.5168L22.075 16.8837L19.061 16.6544ZM10.4224 17.4452V19.4761H9.67168V18.0723C9.39157 18.0068 9.08905 18.1518 8.81454 18.0582C8.60165 17.9225 8.87056 17.74 9.06664 17.7821C9.25151 17.7775 9.49241 17.7915 9.58765 17.6324C9.83414 17.4218 10.1255 17.4265 10.4224 17.4452ZM12.047 17.4686C12.7249 17.5248 13.4028 17.4967 14.0974 17.4967C14.1815 17.6371 14.1423 17.8617 13.9126 17.8664C13.4812 17.8804 12.7361 17.7915 12.4616 17.8945C12.0022 18.3858 12.7809 18.0723 13.1002 18.1378C13.4924 18.1893 13.9406 18.2735 14.1703 18.5683C14.2879 18.7134 14.3215 18.9099 14.2095 19.069C13.8846 19.3872 13.2571 19.6071 12.7921 19.579C12.3832 19.551 11.9182 19.5276 11.6381 19.2468C11.2795 18.7508 12.2263 18.9333 12.3215 19.0971C12.6577 19.3451 13.4588 19.186 13.4812 18.8771C13.5148 18.6806 13.3636 18.5823 13.0946 18.5121C12.8257 18.4419 12.3888 18.5589 12.1255 18.5964C11.8622 18.6338 11.5876 18.6198 11.6213 18.3905C11.6661 18.1939 11.7725 18.0114 11.7725 17.8055C11.7781 17.6652 11.8678 17.478 12.047 17.4686ZM19.526 17.7026C19.5148 17.6932 19.1339 17.974 18.9714 18.0816L18.0862 18.6946C18.6801 18.3905 19.1675 18.1331 19.526 17.7026ZM5.68849 18.3671C5.82294 18.3671 6.10865 18.5823 6.2151 18.6946L7.67728 20.1499C7.24591 20.0517 6.93218 19.8177 6.69129 19.5089C6.32714 19.1673 6.05823 18.7321 5.50361 18.5917C4.99941 18.3577 5.2123 18.2922 5.62126 18.4887C5.60445 18.3998 5.63246 18.3671 5.68849 18.3671Z" fill="white"/>
</svg>
