<svg width="64" height="61" viewBox="0 0 64 61" fill="none" xmlns="http://www.w3.org/2000/svg">
<path d="M28.6206 39.6779L28.4237 40.2049C28.8923 40.3799 29.1475 40.9048 28.9753 41.3927L21.8022 59.5715L21.7967 59.5853L21.792 59.5994C21.7184 59.8193 21.5557 60.0021 21.341 60.0973C21.0811 60.1788 20.813 60.1726 20.6017 60.0974C4.68405 53.9662 -3.25517 36.1379 2.89438 20.2831C9.04553 4.42409 26.9442 -3.49188 42.8653 2.63674C50.5022 5.59394 56.6536 11.415 59.9919 18.8672L59.9926 18.8687C61.6584 22.5576 62.5709 26.5397 62.677 30.5831C62.7832 34.6266 62.0808 38.6507 60.6107 42.4212L60.6092 42.4252C57.4984 50.587 51.0754 57.095 42.9336 60.1875H42.5013H42.0264C41.9455 60.1442 41.8718 60.0886 41.808 60.0225C41.7219 59.9335 41.6557 59.8275 41.6136 59.7115L41.6137 59.7114L41.6099 59.7016L34.6237 41.518C34.6236 41.5175 34.6234 41.517 34.6232 41.5165C34.4512 41.0572 34.679 40.5273 35.1261 40.3253C37.5032 39.4524 39.4014 37.5876 40.4019 35.3617L40.4019 35.3616C42.5448 30.5916 40.4001 25.0225 35.6169 22.8898C30.8347 20.7576 25.247 22.8883 23.1041 27.5917L23.101 27.5984L23.0981 27.6053C22.0996 29.9595 22.0284 32.5895 22.935 34.8978L22.935 34.8978L22.9375 34.9042C23.942 37.3725 25.9182 39.273 28.4245 40.2052L28.6206 39.6779ZM28.6206 39.6779C29.376 39.9602 29.7851 40.8068 29.5019 41.5907L23.4586 34.6921C24.4028 37.0126 26.2599 38.7999 28.6206 39.6779ZM2.15387 30.5069L2.15384 30.5077C2.01019 36.3202 3.6353 42.0397 6.81532 46.9146C9.99531 51.7894 14.5813 55.5911 19.9701 57.8205L20.5019 58.0405L20.7097 57.5038L26.6585 42.1387L26.837 41.6779L26.4029 41.4416C20.9105 38.4516 18.8474 31.6412 21.8124 26.1807C23.2429 23.5583 25.6569 21.6053 28.5282 20.7488C31.3993 19.8924 34.494 20.2021 37.1365 21.6102C38.9301 22.5775 40.4278 24.0095 41.4715 25.7545C42.5154 27.4998 43.0665 29.4936 43.0665 31.5251C43.0665 33.5565 42.5154 35.5503 41.4715 37.2957C40.4276 39.041 38.9294 40.4732 37.1353 41.4405L36.6994 41.6755L36.8773 42.1377L42.8261 57.5968L43.0391 58.1502L43.5805 57.9084C50.579 54.7821 56.0653 49.0416 58.8565 41.9232C64.7625 27.147 57.57 10.4214 42.7412 4.50573L42.7393 4.50497C39.2497 3.1277 35.5266 2.433 31.7734 2.45878C15.8248 2.04823 2.57115 14.6138 2.15387 30.5069Z" fill="#130C2C" stroke="white" stroke-width="1.125"/>
</svg>
