<svg width="25" height="25" viewBox="0 0 25 25" fill="none" xmlns="http://www.w3.org/2000/svg">
<path d="M6.97121 0.730794C6.93714 0.731407 6.90345 0.732224 6.87205 0.735596C4.99056 0.932382 3.53744 2.5669 3.53744 4.55433C3.53744 5.65525 4.00102 6.65875 4.72295 7.35925C0.809859 7.95155 0.499937 13.2423 0.5 16.9668H3.24192L3.94576 24.7543H7.94672L7.24472 16.9971H8.60685L9.3265 24.7703H16.222L16.8583 16.9971H18.2304L17.6019 24.7544H21.6028L22.2709 16.9668H24.8264C24.8264 13.232 24.9157 7.83354 20.6412 7.3003C21.3321 6.60317 21.7891 5.62802 21.7891 4.55438C21.7891 2.43449 20.1066 0.735647 18.0459 0.735647C17.9171 0.735647 17.7648 0.722211 17.6395 0.735647C17.0431 0.797973 16.5253 1.01433 16.0455 1.33265C17.0852 2.01225 17.7881 3.19389 17.7883 4.55433C17.7883 5.62797 17.3292 6.60312 16.6383 7.30025C20.9127 7.83349 20.8256 13.2319 20.8256 16.9668H19.4336C19.4341 13.2331 19.5155 7.86236 15.2523 7.33054C15.9432 6.63336 16.3884 5.6646 16.3884 4.59101C16.3884 2.47106 14.7098 0.759504 12.6492 0.759504C12.5205 0.759504 12.388 0.74612 12.2626 0.759504C10.3811 0.956188 8.91196 2.60348 8.91196 4.59101C8.91196 5.69178 9.37973 6.67474 10.1015 7.37524C6.19884 7.96596 5.89406 13.2438 5.89247 16.9668H4.53852C4.53839 13.2423 4.81272 7.9515 8.72581 7.35925C8.00382 6.65875 7.54024 5.6552 7.54017 4.55428C7.54017 3.19665 8.24681 2.01874 9.28095 1.33254C8.70056 0.953225 8.01867 0.735493 7.28056 0.735493C7.18381 0.735493 7.07329 0.728903 6.97121 0.730794Z" fill="white"/>
</svg>
