<svg width="574" height="88" viewBox="0 0 574 88" fill="none" xmlns="http://www.w3.org/2000/svg">
<path d="M1.375 18.75C1.375 9.01598 9.26598 1.125 19 1.125H554.5C564.234 1.125 572.125 9.01598 572.125 18.75V69C572.125 78.734 564.234 86.625 554.5 86.625H19C9.26599 86.625 1.375 78.734 1.375 69V18.75Z" fill="#130C2C" fill-opacity="0.85"/>
<path d="M1.375 18.75C1.375 9.01598 9.26598 1.125 19 1.125H554.5C564.234 1.125 572.125 9.01598 572.125 18.75V69C572.125 78.734 564.234 86.625 554.5 86.625H19C9.26599 86.625 1.375 78.734 1.375 69V18.75Z" stroke="white" stroke-width="2.25"/>
<path d="M1.375 18.75C1.375 9.01598 9.26598 1.125 19 1.125H554.5C564.234 1.125 572.125 9.01598 572.125 18.75V69C572.125 78.734 564.234 86.625 554.5 86.625H19C9.26599 86.625 1.375 78.734 1.375 69V18.75Z" stroke="white" stroke-width="2.25"/>
</svg>
