<svg width="574" height="89" viewBox="0 0 574 89" fill="none" xmlns="http://www.w3.org/2000/svg">
<path d="M1.375 19.25C1.375 9.51598 9.26598 1.625 19 1.625H554.5C564.234 1.625 572.125 9.51598 572.125 19.25V69.5C572.125 79.234 564.234 87.125 554.5 87.125H19C9.26599 87.125 1.375 79.234 1.375 69.5V19.25Z" fill="#130C2C" fill-opacity="0.85"/>
<path d="M1.375 19.25C1.375 9.51598 9.26598 1.625 19 1.625H554.5C564.234 1.625 572.125 9.51598 572.125 19.25V69.5C572.125 79.234 564.234 87.125 554.5 87.125H19C9.26599 87.125 1.375 79.234 1.375 69.5V19.25Z" stroke="white" stroke-width="2.25"/>
<path d="M1.375 19.25C1.375 9.51598 9.26598 1.625 19 1.625H554.5C564.234 1.625 572.125 9.51598 572.125 19.25V69.5C572.125 79.234 564.234 87.125 554.5 87.125H19C9.26599 87.125 1.375 79.234 1.375 69.5V19.25Z" stroke="white" stroke-width="2.25"/>
</svg>
