<svg width="24" height="23" viewBox="0 0 24 23" fill="none" xmlns="http://www.w3.org/2000/svg">
<path d="M11.6116 0.505313C10.0114 0.505313 8.54179 1.09833 7.43796 2.18386C6.33413 3.26436 5.66791 4.82732 5.66791 6.531C5.66791 8.34021 6.45823 9.92328 7.69269 11.0289L8.57445 11.7827L7.29427 12.0139C3.87827 12.612 2.23885 13.8684 1.30158 15.7932C0.406757 17.5873 0.282658 20.0549 0.25 22.9948H23.1071C23.0941 20.0448 23.0745 17.5019 22.258 15.6826C21.3828 13.7025 19.7826 12.4512 16.1184 11.8933L14.8186 11.7074L15.6612 10.9183C16.8173 9.81774 17.5423 8.27488 17.5423 6.52095C17.5423 4.81727 16.8695 3.25934 15.7657 2.18386C14.6684 1.09331 13.1988 0.495261 11.6116 0.505313Z" fill="white"/>
</svg>
